<svg width="30" height="30" viewBox="0 0 30 30" fill="none" xmlns="http://www.w3.org/2000/svg">
<g id="Attendance">
<g id="Group">
<path id="Vector" d="M13.0813 15.7134C16.1945 15.7134 18.7182 13.1896 18.7182 10.0764C18.7182 6.9632 16.1945 4.43945 13.0813 4.43945C9.96809 4.43945 7.44434 6.9632 7.44434 10.0764C7.44434 13.1896 9.96809 15.7134 13.0813 15.7134Z" fill="white"/>
<path id="Vector_2" d="M24.0266 2.00434C22.6858 1.92225 21.5639 3.0168 21.5639 4.33026V5.75319C21.646 10.7608 20.5514 14.3728 18.417 16.1515C18.1434 16.3704 17.8697 16.5893 17.5687 16.8082C16.2826 17.6838 14.7229 18.1764 13.0537 18.1764C11.1109 18.1764 9.30486 17.4923 7.90931 16.343C5.61074 17.4376 3.75 19.4077 3.75 22.6914V26.8234C3.75 27.4801 4.26991 28 4.92665 28H21.2355C21.8922 28 22.4121 27.4801 22.4121 26.8234V22.6914C22.4121 22.4725 22.4121 22.281 22.3848 22.0894C22.2753 20.4202 22.6311 18.751 23.5614 17.3828C25.4222 14.5917 26.3252 10.6787 26.2431 5.75319V4.49445C26.2431 3.20835 25.2854 2.08643 24.0266 2.00434Z" fill="white"/>
</g>
</g>
</svg>
