<svg width="30" height="30" viewBox="0 0 30 30" fill="none" xmlns="http://www.w3.org/2000/svg">
<g id="Complaints">
<path id="Vector" d="M24.4813 24.8667L22.7864 17.9238C22.4319 16.4736 21.1044 15.2493 19.6352 14.8963C18.5579 16.2746 16.8849 17.1632 15.0005 17.1632C13.1161 17.1632 11.4428 16.2746 10.3656 14.8963C8.89658 15.2493 7.56856 16.4736 7.21467 17.9238L5.51918 24.8667C5.09856 26.5905 6.20558 28 7.97936 28H22.0214C23.7952 28 24.9028 26.5905 24.4813 24.8667ZM15.721 12.7267C16.2153 12.7267 16.6769 12.8804 16.9967 13.1456C17.9504 13.0211 18.7945 12.4373 19.2452 11.5845V7.78413C19.2405 7.52413 19.2096 7.27078 19.1599 7.0232C18.2638 5.68073 16.7359 4.795 15.0002 4.795C13.3024 4.795 11.8045 5.64376 10.9015 6.93769C10.8396 7.213 10.8044 7.49784 10.7995 7.7902V12.2977C10.7995 12.3503 10.7879 12.3997 10.7694 12.4456C11.5541 13.6936 12.8723 14.5704 14.406 14.7518C14.159 14.5389 14.0056 14.2659 14.0056 13.9603C14.0062 13.2684 14.7599 12.7267 15.721 12.7267ZM10.3965 12.2977V7.78413C10.4366 5.26011 12.4895 3.22402 15.0225 3.22402C17.556 3.22402 19.6077 5.26011 19.6482 7.78413V11.681C19.1308 12.7377 18.0847 13.4781 16.8523 13.5648C16.629 13.31 16.2136 13.1297 15.721 13.1297C14.9968 13.1297 14.4094 13.5012 14.4094 13.96C14.4094 14.419 14.9965 14.7906 15.721 14.7906C16.2791 14.7906 16.7492 14.5675 16.9375 14.255C18.3097 14.1452 19.4832 13.3678 20.1401 12.2353C21.0813 12.0045 21.6747 11.1341 21.6747 10.2316C21.6747 9.05438 20.8719 9.16098 20.8719 7.78384C20.8309 4.58411 18.2309 2 15.0225 2C11.8118 2 9.2132 4.58382 9.17305 7.78384C9.17305 9.16098 8.37051 9.05409 8.37051 10.2316C8.37022 11.2834 9.17305 12.2977 10.3965 12.2977Z" fill="white"/>
</g>
</svg>
