<svg width="30" height="30" viewBox="0 0 30 30" fill="none" xmlns="http://www.w3.org/2000/svg">
<g id="Dashboard">
<path id="Vector" d="M13.6667 21.6667C13.6667 22.4 14.2667 23 15 23C15.7333 23 16.3333 22.4 16.3333 21.6667C16.3333 20.9333 15.7333 20.3333 15 20.3333C14.2667 20.3333 13.6667 20.9333 13.6667 21.6667ZM13.6667 3V8.33333H16.3333V5.77333C20.8533 6.42667 24.3333 10.2933 24.3333 15C24.3333 20.16 20.16 24.3333 15 24.3333C9.84 24.3333 5.66667 20.16 5.66667 15C5.66667 12.76 6.45333 10.7067 7.77333 9.10667L15 16.3333L16.88 14.4533L7.81333 5.38667V5.41333C4.89333 7.6 3 11.0667 3 15C3 21.6267 8.36 27 15 27C21.6267 27 27 21.6267 27 15C27 8.37333 21.6267 3 15 3H13.6667ZM23 15C23 14.2667 22.4 13.6667 21.6667 13.6667C20.9333 13.6667 20.3333 14.2667 20.3333 15C20.3333 15.7333 20.9333 16.3333 21.6667 16.3333C22.4 16.3333 23 15.7333 23 15ZM7 15C7 15.7333 7.6 16.3333 8.33333 16.3333C9.06667 16.3333 9.66667 15.7333 9.66667 15C9.66667 14.2667 9.06667 13.6667 8.33333 13.6667C7.6 13.6667 7 14.2667 7 15Z" fill="white"/>
</g>
</svg>
