<svg width="30" height="30" viewBox="0 0 30 30" fill="none" xmlns="http://www.w3.org/2000/svg">
<g id="Diet plan">
<path id="Vector" d="M18.1835 4.18891H16.1264V5.33484C16.1254 6.11178 15.8164 6.85661 15.267 7.40599C14.7176 7.95537 13.9728 8.26445 13.1958 8.26544H9.85195C9.07502 8.26445 8.33018 7.95537 7.78081 7.40599C7.23143 6.85661 6.92235 6.11178 6.92136 5.33484V4.18891H4.86431C4.31625 4.18891 3.79064 4.40662 3.40311 4.79415C3.01557 5.18169 2.79786 5.7073 2.79786 6.25535V25.9335C2.79707 26.2051 2.84998 26.4742 2.95355 26.7253C3.05712 26.9763 3.2093 27.2045 3.40135 27.3965C3.59339 27.5885 3.82151 27.7407 4.07258 27.8443C4.32365 27.9479 4.59271 28.0008 4.86431 28H16.6243C13.4222 24.3845 14.0158 14.692 20.2499 15.6671V6.25535C20.2499 5.7073 20.0322 5.1817 19.6447 4.79417C19.2571 4.40664 18.7315 4.18892 18.1835 4.18891ZM10.1525 14.7278L8.27394 16.6064C8.09741 16.7803 7.85955 16.8778 7.61174 16.8778C7.36393 16.8778 7.12607 16.7803 6.94954 16.6064L5.82238 15.4792C5.65116 15.3012 5.55659 15.0631 5.559 14.8161C5.56141 14.5691 5.6606 14.3329 5.83527 14.1582C6.00994 13.9836 6.24615 13.8844 6.49315 13.882C6.74015 13.8796 6.97823 13.9742 7.15626 14.1454L7.61651 14.6057L8.8282 13.394C9.00637 13.2249 9.24365 13.1323 9.48926 13.1359C9.73486 13.1396 9.96928 13.2392 10.1423 13.4135C10.3154 13.5878 10.4134 13.8229 10.4153 14.0686C10.4172 14.3142 10.3229 14.5508 10.1525 14.7278ZM10.1525 10.5949L8.27394 12.4735C8.18698 12.5604 8.08375 12.6294 7.97013 12.6765C7.8565 12.7236 7.73472 12.7478 7.61174 12.7478C7.48875 12.7478 7.36697 12.7236 7.25335 12.6765C7.13973 12.6294 7.03649 12.5604 6.94954 12.4735L5.82238 11.3463C5.65231 11.1683 5.55886 10.9307 5.5621 10.6846C5.56534 10.4384 5.66503 10.2033 5.83973 10.0299C6.01443 9.85643 6.2502 9.75844 6.49638 9.75696C6.74256 9.75548 6.97949 9.85064 7.15626 10.022L7.61651 10.4822L8.82812 9.27048C9.00495 9.10076 9.24126 9.00711 9.48635 9.00962C9.73144 9.01213 9.96578 9.11061 10.1391 9.28392C10.3124 9.45723 10.4109 9.69157 10.4134 9.93666C10.4159 10.1817 10.3223 10.4181 10.1525 10.5949ZM15.8822 15.9395H13.1489C12.9022 15.9358 12.6668 15.8352 12.4936 15.6595C12.3205 15.4837 12.2234 15.2469 12.2234 15.0002C12.2234 14.7534 12.3205 14.5166 12.4936 14.3409C12.6668 14.1651 12.9022 14.0645 13.1489 14.0609H15.8822C16.1291 14.0642 16.3648 14.1646 16.5383 14.3404C16.7117 14.5162 16.809 14.7532 16.809 15.0002C16.809 15.2471 16.7117 15.4842 16.5383 15.6599C16.3648 15.8357 16.1291 15.9362 15.8822 15.9395ZM15.8822 11.816H13.1489C12.9022 11.8123 12.6668 11.7117 12.4936 11.536C12.3205 11.3602 12.2234 11.1234 12.2234 10.8767C12.2234 10.6299 12.3205 10.3931 12.4936 10.2174C12.6668 10.0416 12.9022 9.94104 13.1489 9.93738H15.8822C16.1293 9.94051 16.3652 10.0408 16.5388 10.2167C16.7124 10.3925 16.8097 10.6296 16.8097 10.8767C16.8097 11.1238 16.7124 11.3609 16.5388 11.5367C16.3652 11.7125 16.1293 11.8128 15.8822 11.816ZM14.2501 3.05072V5.33672C14.2506 5.47483 14.2238 5.61166 14.1711 5.73935C14.1185 5.86703 14.0411 5.98304 13.9435 6.0807C13.8458 6.17835 13.7298 6.25572 13.6021 6.30835C13.4744 6.36098 13.3376 6.38784 13.1995 6.38736H9.85119C9.71309 6.38784 9.57625 6.36098 9.44857 6.30835C9.32089 6.25572 9.20488 6.17835 9.10722 6.0807C9.00957 5.98304 8.9322 5.86703 8.87957 5.73935C8.82694 5.61166 8.80009 5.47483 8.80056 5.33672V3.05072C8.80009 2.91261 8.82693 2.77577 8.87956 2.64808C8.93219 2.52039 9.00956 2.40438 9.10722 2.30672C9.20487 2.20906 9.32088 2.13168 9.44856 2.07904C9.57625 2.0264 9.71308 1.99954 9.85119 2.00001H13.1995C13.3376 1.99954 13.4744 2.0264 13.6021 2.07904C13.7298 2.13168 13.8458 2.20905 13.9435 2.30672C14.0411 2.40438 14.1185 2.52039 14.1711 2.64808C14.2238 2.77577 14.2506 2.91261 14.2501 3.05072ZM27.127 23.1442C26.6986 26.1798 24.9003 28.4687 22.8815 27.9065C21.6471 27.3784 20.407 28.4287 19.2181 27.728C15.3701 26.0855 15.6118 14.998 20.9666 18.0025C21.0034 17.4044 21.1963 16.8264 21.526 16.3261C21.8557 15.8257 22.3107 15.4205 22.8457 15.1506C23.0545 15.0206 23.306 14.9777 23.5461 15.0311C23.7862 15.0845 23.9958 15.2299 24.1298 15.4362C24.2639 15.6424 24.3117 15.893 24.263 16.1341C24.2142 16.3752 24.0729 16.5876 23.8693 16.7256C23.611 16.8351 23.3832 17.0058 23.2055 17.2228C23.0278 17.4399 22.9054 17.6969 22.849 17.9717C25.7163 16.1602 27.5886 19.5249 27.127 23.1442Z" fill="white"/>
</g>
</svg>
