<svg width="30" height="30" viewBox="0 0 30 30" fill="none" xmlns="http://www.w3.org/2000/svg">
<g id="Examination">
<path id="Vector" fill-rule="evenodd" clip-rule="evenodd" d="M4.59954 4.7524C4.2377 4.88023 3.90405 5.08822 3.62779 5.36555C3.1403 5.85305 2.86621 6.51387 2.86621 7.20396V25.4039C2.86621 26.094 3.14029 26.7548 3.62779 27.2423C4.11529 27.7298 4.77612 28.0039 5.4662 28.0039H18.4662C19.1563 28.0039 19.8171 27.7298 20.3046 27.2423C20.5819 26.9661 20.7899 26.6335 20.9177 26.2706H8.06725C7.1475 26.2706 6.26675 25.9055 5.61677 25.2544C4.96567 24.6044 4.60059 23.7226 4.60059 22.8039V4.75345L4.59954 4.7524ZM23.6662 17.3785L21.584 20.985C21.4984 21.1334 21.3706 21.2525 21.2178 21.3284L18.4162 22.7129C18.1562 22.8418 17.8496 22.832 17.5994 22.6869C17.3481 22.5417 17.1856 22.2817 17.1682 21.9914L16.9667 18.8736C16.9559 18.7024 16.9949 18.5334 17.0816 18.385L23.1482 7.87773C23.289 7.63181 23.4656 7.4173 23.666 7.23856V4.6039C23.666 3.91381 23.392 3.25298 22.9045 2.76549C22.417 2.27799 21.7561 2.00391 21.0661 2.00391H8.06609C7.376 2.00391 6.71517 2.27799 6.22768 2.76549C5.74018 3.25298 5.46609 3.91381 5.46609 4.6039V22.8038C5.46609 23.4939 5.74018 24.1548 6.22768 24.6423C6.71517 25.1298 7.376 25.4038 8.06609 25.4038H21.0661C21.7561 25.4038 22.417 25.1298 22.9045 24.6423C23.392 24.1548 23.666 23.4939 23.666 22.8038L23.6662 17.3785ZM23.0086 9.85143L17.8324 18.8181L18.0339 21.9359L20.8355 20.5514L26.0117 11.5847L23.0098 9.85138L23.0086 9.85143ZM10.6662 21.0693H15.8661C16.345 21.0693 16.7328 20.6814 16.7328 20.2026C16.7328 19.7238 16.345 19.3359 15.8661 19.3359H10.6662C10.1873 19.3359 9.7995 19.7238 9.7995 20.2026C9.7995 20.6814 10.1873 21.0693 10.6662 21.0693ZM10.6662 16.7359H16.7328C17.2117 16.7359 17.5995 16.3481 17.5995 15.8693C17.5995 15.3904 17.2117 15.0026 16.7328 15.0026H10.6662C10.1873 15.0026 9.7995 15.3904 9.7995 15.8693C9.7995 16.3481 10.1873 16.7359 10.6662 16.7359ZM10.6662 12.4026H18.4661C18.945 12.4026 19.3328 12.0148 19.3328 11.536C19.3328 11.0571 18.945 10.6693 18.4661 10.6693H10.6662C10.1873 10.6693 9.7995 11.0571 9.7995 11.536C9.7995 12.0148 10.1873 12.4026 10.6662 12.4026ZM23.4645 9.06048L26.4664 10.7938L26.8997 10.0431C27.3785 9.21324 27.0936 8.15374 26.2648 7.6749C25.435 7.19606 24.3755 7.4799 23.8967 8.30974L23.4633 9.06048H23.4645ZM10.6662 8.06924H18.4661C18.945 8.06924 19.3328 7.68142 19.3328 7.20257C19.3328 6.72373 18.945 6.33591 18.4661 6.33591H10.6662C10.1873 6.33591 9.7995 6.72373 9.7995 7.20257C9.7995 7.68142 10.1873 8.06924 10.6662 8.06924Z" fill="white"/>
</g>
</svg>
