<svg width="30" height="30" viewBox="0 0 30 30" fill="none" xmlns="http://www.w3.org/2000/svg">
<g id="Expense">
<path id="Vector" fill-rule="evenodd" clip-rule="evenodd" d="M15.876 16.5178C15.5218 15.3782 15.629 14.1452 16.1746 13.0839V2.50942C16.174 2.37451 16.1201 2.2453 16.0247 2.1499C15.9293 2.0545 15.8001 2.00063 15.6652 2H5.96535C5.83044 2.00063 5.70123 2.0545 5.60583 2.1499C5.51044 2.2453 5.45656 2.37451 5.45593 2.50942V16.0538C5.45656 16.1887 5.51044 16.3179 5.60583 16.4133C5.70123 16.5087 5.83044 16.5626 5.96535 16.5632H15.6655C15.7353 16.5635 15.8043 16.5492 15.8682 16.5211L15.876 16.5178ZM7.18664 3.80715H14.4994V6.00576H7.18604V3.80715H7.18664ZM8.40703 9.25786H7.18604V8.20229H8.40703V9.25786ZM11.4528 9.25786H10.2321V8.20229H11.4531L11.4528 9.25786ZM14.4985 9.25786H13.2773V8.20229H14.4985V9.25786ZM11.4531 12.1334H10.2321V11.0781H11.4531V12.1334ZM8.40733 12.1334H7.18604V11.0781H8.40703L8.40733 12.1334ZM13.2782 11.0778H14.4994V15.0096H13.2782V11.0778ZM10.2321 13.9549H11.4531V15.0105H10.2321V13.9549ZM7.18634 13.9549H8.40703V15.0105H7.18604V13.9549H7.18634ZM22.9012 12.4732C22.4824 12.0548 21.9717 11.7398 21.4097 11.5533C20.8478 11.3668 20.2501 11.3139 19.6642 11.3989C19.0782 11.4839 18.5202 11.7043 18.0343 12.0427C17.5485 12.3812 17.1483 12.8282 16.8656 13.3484C16.5287 13.969 16.3711 14.671 16.4104 15.3759C16.4496 16.0809 16.6843 16.7611 17.088 17.3403C17.4918 17.9196 18.0487 18.3751 18.6965 18.6559C19.3443 18.9368 20.0575 19.0318 20.7563 18.9305C21.4551 18.8292 22.1119 18.5355 22.6533 18.0822C23.1946 17.6289 23.5992 17.034 23.8218 16.3639C24.0444 15.6938 24.0762 14.975 23.9136 14.2879C23.751 13.6008 23.4005 12.9725 22.9012 12.4732ZM18.395 13.3484C18.8151 12.9282 19.3679 12.6667 19.9591 12.6084C20.5504 12.5501 21.1436 12.6986 21.6377 13.0287C22.1317 13.3588 22.496 13.8499 22.6685 14.4185C22.841 14.987 22.811 15.5978 22.5836 16.1467C22.3563 16.6957 21.9456 17.1487 21.4216 17.4288C20.8976 17.7089 20.2927 17.7986 19.71 17.6826C19.1272 17.5667 18.6027 17.2522 18.2259 16.7929C17.849 16.3336 17.6431 15.7578 17.6431 15.1636C17.6427 14.8265 17.709 14.4925 17.838 14.181C17.967 13.8695 18.1563 13.5866 18.395 13.3484ZM7.01136 20.2005L11.2363 18.7373C11.7553 18.5482 12.324 18.5453 12.8449 18.7293L19.441 20.9389C19.678 21.0198 19.8744 21.1895 19.9887 21.4124C20.103 21.6352 20.1263 21.8937 20.0538 22.1333C19.9312 22.3797 19.7349 22.5817 19.4921 22.7111C19.3908 22.7633 19.2801 22.7946 19.1666 22.8031C19.053 22.8116 18.9389 22.7972 18.831 22.7607L14.0124 21.1482C13.9668 21.133 13.9186 21.1269 13.8707 21.1302C13.8227 21.1336 13.7759 21.1464 13.7328 21.1678C13.6898 21.1893 13.6514 21.219 13.6199 21.2553C13.5883 21.2916 13.5642 21.3338 13.549 21.3794C13.5337 21.425 13.5276 21.4731 13.531 21.5211C13.5343 21.5691 13.5471 21.6159 13.5686 21.6589C13.59 21.702 13.6198 21.7404 13.656 21.7719C13.6923 21.8035 13.7345 21.8275 13.7801 21.8428L18.5984 23.4553C18.7973 23.5234 19.0079 23.5509 19.2177 23.5359C19.4275 23.521 19.6321 23.464 19.8194 23.3684C20.2124 23.1622 20.5286 22.8349 20.7211 22.4349C20.7288 22.4196 20.7354 22.4037 20.7408 22.3874C20.8154 22.1667 20.8434 21.9328 20.823 21.7007L25.6762 19.1861C25.9086 19.0639 26.1786 19.0339 26.4322 19.1022C26.5509 19.1345 26.662 19.19 26.7591 19.2655C26.8561 19.341 26.9373 19.435 26.9978 19.5421C27.1222 19.7639 27.1539 20.026 27.0859 20.2711C27.0179 20.5162 26.8557 20.7245 26.6347 20.8505C26.6281 20.8544 26.6221 20.858 26.6159 20.8622L18.6333 25.4702C18.6273 25.4735 18.6217 25.4771 18.6163 25.4807C18.1135 25.8164 17.5025 25.9498 16.9056 25.8542L10.9171 24.9883C10.8311 24.9758 10.7435 24.9946 10.6701 25.0411L10.2354 25.2947L7.01046 20.2002L7.01136 20.2005ZM2.87988 20.6358L7.53959 28L10.0676 26.4004L9.81166 25.9958C9.80718 25.9892 9.803 25.9826 9.79882 25.9758L5.40786 19.0362L2.87988 20.6358ZM20.5778 16.8382V16.9481C20.5778 16.9963 20.5683 17.0441 20.5499 17.0886C20.5314 17.1332 20.5043 17.1737 20.4702 17.2078C20.4361 17.2419 20.3956 17.269 20.3511 17.2874C20.3065 17.3059 20.2588 17.3154 20.2105 17.3154C20.1623 17.3154 20.1145 17.3059 20.07 17.2874C20.0254 17.269 19.9849 17.2419 19.9508 17.2078C19.9167 17.1737 19.8897 17.1332 19.8712 17.0886C19.8527 17.0441 19.8432 16.9963 19.8432 16.9481V16.8382C19.8217 16.8316 19.8005 16.8248 19.7799 16.817C19.5773 16.7504 19.4015 16.6201 19.2788 16.4456C19.1561 16.2711 19.093 16.0616 19.0988 15.8483C19.0974 15.7992 19.1059 15.7503 19.1237 15.7045C19.1416 15.6587 19.1684 15.6169 19.2027 15.5817C19.2369 15.5464 19.2779 15.5184 19.3232 15.4993C19.3685 15.4801 19.4171 15.4703 19.4663 15.4703C19.5154 15.4703 19.5641 15.4801 19.6093 15.4993C19.6546 15.5184 19.6956 15.5464 19.7299 15.5817C19.7641 15.6169 19.791 15.6587 19.8088 15.7045C19.8266 15.7503 19.8351 15.7992 19.8337 15.8483C19.8324 15.9101 19.851 15.9707 19.8867 16.021C19.9225 16.0714 19.9735 16.109 20.0323 16.1281C20.1476 16.1683 20.2732 16.1683 20.3885 16.1281C20.4473 16.1091 20.4984 16.0716 20.5343 16.0212C20.5701 15.9708 20.5887 15.9102 20.5874 15.8483C20.5874 15.6199 20.3595 15.57 20.1317 15.5199C19.6151 15.407 19.0988 15.2944 19.0988 14.4786C19.093 14.2654 19.1561 14.0559 19.2788 13.8814C19.4015 13.7069 19.5773 13.5766 19.7799 13.51C19.8005 13.5022 19.8217 13.495 19.8432 13.4885V13.3789C19.8432 13.2815 19.8819 13.1881 19.9508 13.1192C20.0197 13.0503 20.1131 13.0116 20.2105 13.0116C20.3079 13.0116 20.4014 13.0503 20.4702 13.1192C20.5391 13.1881 20.5778 13.2815 20.5778 13.3789V13.4885C20.5993 13.495 20.6202 13.5022 20.6411 13.51C20.8438 13.5766 21.0195 13.7069 21.1423 13.8814C21.265 14.0559 21.3281 14.2654 21.3222 14.4786C21.3195 14.5743 21.2796 14.6651 21.211 14.7318C21.1424 14.7984 21.0505 14.8357 20.9548 14.8357C20.8591 14.8357 20.7672 14.7984 20.6986 14.7318C20.63 14.6651 20.5901 14.5743 20.5874 14.4786C20.5888 14.4168 20.5702 14.3562 20.5343 14.3058C20.4985 14.2554 20.4473 14.2179 20.3885 14.1988C20.2732 14.1586 20.1476 14.1586 20.0323 14.1988C19.9735 14.2179 19.9224 14.2554 19.8866 14.3058C19.8508 14.3562 19.8323 14.4168 19.8337 14.4786C19.8337 14.7035 20.06 14.7528 20.2867 14.8023C20.8042 14.9152 21.3222 15.0281 21.3222 15.8474C21.3281 16.0607 21.265 16.2702 21.1423 16.4447C21.0195 16.6192 20.8438 16.7495 20.6411 16.8161C20.6202 16.8248 20.5993 16.8316 20.5778 16.8382Z" fill="white"/>
</g>
</svg>
