<svg width="30" height="30" viewBox="0 0 30 30" fill="none" xmlns="http://www.w3.org/2000/svg">
<g id="Health Record">
<g id="Group">
<path id="Vector" d="M6.94941 20.9661H22.5855V2H2.35645V25.9386C2.35645 27.0761 3.28155 28 4.41789 28C4.97156 28 5.48924 27.7853 5.87574 27.3953C6.26806 27.0053 6.4828 26.4887 6.4828 25.9374V21.4303C6.4828 21.1738 6.69057 20.966 6.94709 20.966L6.94941 20.9661ZM20.0921 16.9431H17.5943C17.3377 16.9431 17.13 16.7353 17.13 16.4788C17.13 16.2223 17.3377 16.0145 17.5943 16.0145H20.0921C20.3486 16.0145 20.5564 16.2223 20.5564 16.4788C20.5564 16.7353 20.3486 16.9431 20.0921 16.9431ZM20.5564 14.1597C20.5564 14.4162 20.3486 14.624 20.0921 14.624H9.30666C9.05014 14.624 8.84237 14.4162 8.84237 14.1597C8.84237 13.9032 9.05014 13.6954 9.30666 13.6954H20.0921C20.3486 13.6954 20.5564 13.9032 20.5564 14.1597ZM8.37585 7.03624C8.37585 6.77972 8.58362 6.57196 8.84014 6.57196H10.8505V4.56159C10.8505 4.30508 11.0583 4.09731 11.3148 4.09731H13.6293C13.8858 4.09731 14.0936 4.30508 14.0936 4.56159V6.57196H16.1039C16.3604 6.57196 16.5682 6.77972 16.5682 7.03624V9.35073C16.5682 9.60725 16.3604 9.81502 16.1039 9.81502H14.0936V11.8254C14.0936 12.0819 13.8858 12.2897 13.6293 12.2897H11.3148C11.0583 12.2897 10.8505 12.0819 10.8505 11.8254V9.81502H8.84014C8.58362 9.81502 8.37585 9.60725 8.37585 9.35073V7.03624ZM4.84964 13.6953H7.34749C7.60401 13.6953 7.81178 13.903 7.81178 14.1595C7.81178 14.4161 7.60401 14.6238 7.34749 14.6238H4.84964C4.59312 14.6238 4.38535 14.4161 4.38535 14.1595C4.38535 13.903 4.59312 13.6953 4.84964 13.6953ZM4.84964 16.0144H15.6351C15.8916 16.0144 16.0994 16.2221 16.0994 16.4787C16.0994 16.7352 15.8916 16.943 15.6351 16.943H4.84964C4.59312 16.943 4.38535 16.7352 4.38535 16.4787C4.38535 16.2221 4.59312 16.0144 4.84964 16.0144ZM4.84964 19.2645C4.59312 19.2645 4.38535 19.0568 4.38535 18.8003C4.38535 18.5437 4.59312 18.336 4.84964 18.336H17.2346C17.4911 18.336 17.6989 18.5437 17.6989 18.8003C17.6989 19.0568 17.4911 19.2645 17.2346 19.2645H4.84964Z" fill="white"/>
<path id="Vector_2" d="M11.7779 9.35024V11.3606H13.1638V9.35024C13.1638 9.09372 13.3716 8.88595 13.6281 8.88595H15.6384V7.50004H13.6281C13.3716 7.50004 13.1638 7.29227 13.1638 7.03575V5.02539H11.7779V7.03575C11.7779 7.29227 11.5701 7.50004 11.3136 7.50004H9.30322V8.88595H11.3136C11.5701 8.88595 11.7779 9.09372 11.7779 9.35024Z" fill="white"/>
<path id="Vector_3" d="M7.41379 25.9383C7.41379 26.716 7.1178 27.4438 6.58154 27.9998H25.5792C26.7167 27.9998 27.6406 27.0747 27.6406 25.9383V21.8957L7.41399 21.8945L7.41379 25.9383Z" fill="white"/>
</g>
</g>
</svg>
