<svg width="30" height="30" viewBox="0 0 30 30" fill="none" xmlns="http://www.w3.org/2000/svg">
<g id="Leave">
<g id="Group">
<path id="Vector" d="M12.9547 16.3683L13.0915 10.0462C14.542 9.8273 15.6641 9.19783 16.0199 8.97888C17.1968 8.23993 18.8389 5.88625 19.1673 5.42099C19.4957 4.92835 19.3863 4.24414 18.8663 3.88835C18.3736 3.55993 17.6894 3.66941 17.3336 4.18941C16.6494 5.17467 15.4452 6.76204 14.8431 7.11783C14.2136 7.50098 13.0915 7.93888 11.9968 7.93888H9.04097C7.07044 7.93888 6.16728 9.71782 5.61991 10.7578L5.5378 10.8947C4.99043 12.0441 4.0599 14.4526 4.00517 14.562C3.78622 15.1368 4.0599 15.7662 4.63464 15.9852C4.77148 16.0399 4.90833 16.0673 5.0178 16.0673C5.4557 16.0673 5.86622 15.7936 6.03043 15.3557C6.03043 15.3283 6.96096 12.9747 7.48096 11.9347L7.56307 11.7705C7.69991 11.4968 7.83675 11.2505 7.9736 11.0041C8.00096 12.4547 8.08307 14.6441 8.11044 15.8757C8.11044 15.9578 8.11044 16.1494 8.11044 16.1494C8.11044 16.3683 8.13781 16.5326 8.13781 16.642C8.19254 18.0105 8.32939 20.2547 8.32939 20.9936C8.30202 21.5136 7.61781 24.1957 6.98833 26.3578C6.79675 27.042 7.17991 27.7536 7.86412 27.9452C7.9736 27.9726 8.11044 27.9999 8.21991 27.9999C8.76728 27.9999 9.28728 27.6441 9.45149 27.0694C9.88939 25.5915 10.8747 22.0062 10.8747 20.9936C10.8747 20.3915 10.8199 19.0231 10.7378 17.7368C11.5589 19.2694 12.4347 21.021 12.5441 21.3768C12.6536 21.842 12.8726 24.5515 13.0094 26.7683C13.0641 27.4799 13.6662 27.9999 14.3505 27.9726C15.062 27.9178 15.582 27.3157 15.5547 26.6315C15.4999 25.482 15.2536 21.6778 15.0073 20.7473C14.8978 20.0083 13.6115 17.5999 12.9547 16.3683Z" fill="white"/>
<path id="Vector_2" d="M10.5465 7.14526C11.9673 7.14526 13.1192 5.99345 13.1192 4.57263C13.1192 3.15181 11.9673 2 10.5465 2C9.12569 2 7.97388 3.15181 7.97388 4.57263C7.97388 5.99345 9.12569 7.14526 10.5465 7.14526Z" fill="white"/>
<path id="Vector_3" d="M25.8179 13.8782L21.3294 11.0593C20.7547 10.7035 20.0157 11.1961 20.1252 11.8803L20.3989 13.2761H16.1294C15.5273 13.2761 15.0347 13.7687 15.0347 14.3708C15.0347 14.973 15.5273 15.4656 16.1294 15.4656H20.3989L20.1252 16.8614C19.9884 17.5456 20.7273 18.0382 21.3294 17.6824L25.7905 14.8635C25.9 14.8087 25.9821 14.6993 26.0094 14.5898C26.1463 14.3161 26.0368 14.0151 25.8179 13.8782Z" fill="white"/>
</g>
</g>
</svg>
