<svg width="30" height="30" viewBox="0 0 30 30" fill="none" xmlns="http://www.w3.org/2000/svg">
<g id="Reports">
<g id="Group">
<path id="Vector" d="M9.48291 19.7607V24.0252H11.2548V19.7607H9.48291Z" fill="white"/>
<path id="Vector_2" d="M15.8854 16.3701H14.1135V24.0248H15.8854V16.3701Z" fill="white"/>
<path id="Vector_3" d="M18.7441 19.7607V24.0252H20.5161V19.7607H18.7441Z" fill="white"/>
<path id="Vector_4" d="M21.6914 2H12.4125C12.3889 2 12.3652 2.01181 12.3416 2.01772C12.318 2.02363 12.3003 2.02363 12.2825 2.02953C12.2058 2.05316 12.1408 2.0945 12.0876 2.15357L5.72053 9.73739C5.67328 9.79646 5.64965 9.86143 5.63193 9.9323C5.63193 9.94412 5.62602 9.96184 5.62602 9.97365C5.62602 9.98546 5.62012 9.99727 5.62012 10.0091V25.1767C5.62012 26.7301 6.82502 28 8.30753 28H21.6855C23.168 28 24.373 26.736 24.373 25.1767V4.82326C24.3789 3.26397 23.174 2 21.6914 2ZM6.97859 9.58383L11.9872 3.61836V7.6288C11.9872 8.70968 11.1662 9.58973 10.1621 9.58973H6.97859V9.58383ZM12.1172 24.149C12.1172 24.2376 12.0994 24.3203 12.0699 24.403C12.064 24.4148 12.064 24.4266 12.0581 24.4384C12.0522 24.4502 12.0463 24.4621 12.0463 24.4739C12.0345 24.4975 12.0227 24.5152 12.0108 24.5329C11.9813 24.5861 11.9459 24.6274 11.9045 24.6688C11.7746 24.7987 11.5915 24.8814 11.3848 24.8814H9.35887C9.15805 24.8814 8.97496 24.7987 8.83911 24.6688C8.79776 24.6274 8.76233 24.5802 8.73279 24.5329C8.72098 24.5152 8.70917 24.4916 8.69736 24.4739C8.69145 24.4621 8.68554 24.4502 8.68554 24.4384C8.67964 24.4266 8.67373 24.4148 8.67373 24.403C8.6442 24.3262 8.62648 24.2376 8.62648 24.149V19.6306C8.62648 19.4298 8.70917 19.2467 8.83911 19.1109C8.96905 18.975 9.15215 18.8982 9.35887 18.8982H11.3848C11.5856 18.8982 11.7687 18.9809 11.9045 19.1109C12.0404 19.2408 12.1172 19.4239 12.1172 19.6306V24.149ZM16.7478 24.149C16.7478 24.5566 16.417 24.8814 16.0154 24.8814H13.9895C13.5879 24.8814 13.2571 24.5507 13.2571 24.149V16.2403C13.2571 15.8387 13.5879 15.508 13.9895 15.508H16.0154C16.417 15.508 16.7478 15.8387 16.7478 16.2403V24.149ZM21.3784 24.149C21.3784 24.2376 21.3607 24.3203 21.3312 24.403C21.3253 24.4148 21.3253 24.4266 21.3193 24.4384C21.3134 24.4502 21.3075 24.4621 21.3075 24.4739C21.2957 24.4975 21.2839 24.5152 21.2721 24.5329C21.2426 24.5861 21.2071 24.6274 21.1658 24.6688C21.0358 24.7987 20.8527 24.8814 20.646 24.8814H18.6201C18.4193 24.8814 18.2362 24.7987 18.1004 24.6688C18.059 24.6274 18.0236 24.5802 17.994 24.5329C17.9822 24.5152 17.9704 24.4916 17.9586 24.4739C17.9527 24.4621 17.9468 24.4502 17.9468 24.4384C17.9409 24.4266 17.935 24.4148 17.935 24.403C17.9054 24.3262 17.8877 24.2376 17.8877 24.149V19.6306C17.8877 19.4298 17.9704 19.2467 18.1004 19.1109C18.2303 18.975 18.4193 18.8982 18.6201 18.8982H20.646C20.8468 18.8982 21.0299 18.9809 21.1658 19.1109C21.3016 19.2408 21.3784 19.4239 21.3784 19.6306V24.149Z" fill="white"/>
</g>
</g>
</svg>
