<svg width="30" height="30" viewBox="0 0 30 30" fill="none" xmlns="http://www.w3.org/2000/svg">
<g id="School">
<g id="Group 516">
<path id="Vector" d="M27.4468 26.8936H26.0638V17.2128H21.3617V26.8936H20.5319V12.234L15.5532 8.5V5.31915H18.5957C18.9004 5.31915 19.1489 5.07064 19.1489 4.76596V3.10638C19.1489 2.80169 18.9004 2.55319 18.5957 2.55319H15.5532C15.5532 2.24849 15.3047 2 15 2C14.6953 2 14.4468 2.2485 14.4468 2.55319V8.5L9.46809 12.234V26.8936H8.6383V17.2128H3.93617V26.8936H2.55319C2.24849 26.8936 2 27.1421 2 27.4468C2 27.7515 2.2485 28 2.55319 28H27.4468C27.7515 28 28 27.7515 28 27.4468C28 27.1421 27.7515 26.8936 27.4468 26.8936ZM22.7447 18.5957H24.6809C24.9855 18.5957 25.234 18.8442 25.234 19.1489C25.234 19.4536 24.9855 19.7021 24.6809 19.7021H22.7447C22.44 19.7021 22.1915 19.4536 22.1915 19.1489C22.1915 18.8442 22.44 18.5957 22.7447 18.5957ZM22.7447 21.3617H24.6809C24.9855 21.3617 25.234 21.6102 25.234 21.9149C25.234 22.2196 24.9855 22.4681 24.6809 22.4681H22.7447C22.44 22.4681 22.1915 22.2196 22.1915 21.9149C22.1915 21.6102 22.44 21.3617 22.7447 21.3617ZM5.31915 18.5957H7.25532C7.56002 18.5957 7.80851 18.8442 7.80851 19.1489C7.80851 19.4536 7.56001 19.7021 7.25532 19.7021H5.31915C5.01445 19.7021 4.76596 19.4536 4.76596 19.1489C4.76596 18.8442 5.01446 18.5957 5.31915 18.5957ZM5.31915 21.3617H7.25532C7.56002 21.3617 7.80851 21.6102 7.80851 21.9149C7.80851 22.2196 7.56001 22.4681 7.25532 22.4681H5.31915C5.01445 22.4681 4.76596 22.2196 4.76596 21.9149C4.76596 21.6102 5.01446 21.3617 5.31915 21.3617ZM15 11.6809C16.0675 11.6809 16.9362 12.5495 16.9362 13.617C16.9362 14.6845 16.0675 15.5532 15 15.5532C13.9325 15.5532 13.0638 14.6845 13.0638 13.617C13.0638 12.5495 13.9325 11.6809 15 11.6809ZM13.617 17.2128H16.383C16.6877 17.2128 16.9362 17.4613 16.9362 17.766C16.9362 18.0706 16.6877 18.3191 16.383 18.3191H13.617C13.3123 18.3191 13.0638 18.0706 13.0638 17.766C13.0638 17.4613 13.3123 17.2128 13.617 17.2128ZM11.6809 21.6383C11.6809 20.7232 12.4253 19.9787 13.3404 19.9787H16.6596C17.5747 19.9787 18.3191 20.7232 18.3191 21.6383V26.8936H17.2128V21.6383C17.2128 21.3336 16.9643 21.0851 16.6596 21.0851H13.3404C13.0357 21.0851 12.7872 21.3336 12.7872 21.6383V26.8936H11.6809V21.6383Z" fill="white"/>
<path id="Vector_2" d="M15.83 13.6169C15.83 14.7233 14.1704 14.7233 14.1704 13.6169C14.1704 12.5105 15.83 12.5105 15.83 13.6169Z" fill="white"/>
<path id="Vector_3" d="M3.65961 16.3831H8.63833V13.6172H3.65961C3.04808 13.6172 2.55322 14.112 2.55322 14.7236V15.2768C2.55322 15.8883 3.04808 16.3831 3.65961 16.3831Z" fill="white"/>
<path id="Vector_4" d="M27.4469 15.2768V14.7236C27.4469 14.112 26.9521 13.6172 26.3405 13.6172H21.3618V16.3831H26.3405C26.9521 16.3831 27.4469 15.8883 27.4469 15.2768Z" fill="white"/>
</g>
</g>
</svg>
