<svg width="30" height="30" viewBox="0 0 30 30" fill="none" xmlns="http://www.w3.org/2000/svg">
<g id="Staff">
<g id="Group 517">
<path id="Vector" d="M15.6177 19.6249L18.2901 20.103L17.6223 17.8643C17.5931 17.8954 17.5624 17.9254 17.5301 17.9538L15.6177 19.6249Z" fill="white"/>
<path id="Vector_2" d="M11.7168 20.1013L14.3742 19.626L12.4676 17.953C12.4479 17.9358 12.4289 17.9177 12.4103 17.8994L11.7168 20.1013Z" fill="white"/>
<path id="Vector_3" d="M17.3991 16.9727V15.2196L16.7906 15.5757C16.2609 15.8855 15.6579 16.0481 15.0442 16.0464C14.4305 16.0447 13.8285 15.8789 13.3005 15.5661L12.5991 15.1504V16.9739C12.5992 17.0772 12.6214 17.1793 12.6641 17.2734C12.7068 17.3675 12.7691 17.4514 12.8468 17.5195L14.9943 19.4035L17.1502 17.5192C17.2283 17.4511 17.2909 17.3671 17.3338 17.2729C17.3767 17.1786 17.399 17.0763 17.3991 16.9727Z" fill="white"/>
<path id="Vector_4" d="M19.6568 9.89463C19.6619 9.88546 19.6675 9.87656 19.6736 9.86796C20.5922 8.57325 20.7889 6.87268 20.1872 5.43005C19.86 4.64546 19.0853 3.32183 17.5668 3.25017C16.1873 3.37114 14.8264 3.15121 13.6326 2.61373L12.2807 2.00494C12.2196 1.99521 12.1571 1.9999 12.0982 2.01864C12.0393 2.03739 11.9856 2.06966 11.9413 2.11289C11.7759 2.26282 11.6283 2.43137 11.5015 2.61517C11.4913 2.64693 11.4758 2.67667 11.4554 2.70307C11.3135 2.88665 11.1467 3.50166 10.9535 4.21373C10.7671 4.90109 10.535 5.75659 10.2133 6.6618C9.7194 8.05179 10.2005 9.45657 10.6511 10.3696L10.6527 9.76929C10.6554 9.12878 10.8905 8.51102 11.3142 8.03069C11.7379 7.55035 12.3216 7.24008 12.9567 7.15746L13.7663 7.05453C13.8227 7.04733 13.8713 7.03938 13.915 7.03028C15.0886 6.78007 16.1465 6.14871 16.9239 5.23455C16.9604 5.19158 17.0052 5.15646 17.0556 5.13129C17.106 5.10613 17.161 5.09145 17.2173 5.08814C17.2735 5.08483 17.3299 5.09296 17.3829 5.11203C17.4359 5.13111 17.4845 5.16073 17.5258 5.19912L19.3483 6.89635C19.3894 6.93458 19.4221 6.98086 19.4445 7.0323C19.4669 7.08375 19.4785 7.13926 19.4785 7.19536L19.4702 10.2305L19.6568 9.89463Z" fill="white"/>
<path id="Vector_5" d="M18.8892 12.2023L18.9028 7.26791L17.2536 5.73242C16.4039 6.67808 15.2761 7.32989 14.0324 7.59411C13.9739 7.60632 13.9106 7.61669 13.8391 7.62584L13.0294 7.72878C12.5329 7.79347 12.0768 8.0361 11.7456 8.41163C11.4145 8.78716 11.2308 9.27008 11.2287 9.77076L11.2222 12.1813C11.2196 13.0948 11.7224 13.9612 12.5344 14.4425L13.5951 15.0712C14.0346 15.3316 14.5358 15.4696 15.0467 15.471C15.5576 15.4724 16.0595 15.3371 16.5004 15.0791L17.5646 14.4563C18.3791 13.9798 18.8867 13.1157 18.8892 12.2023Z" fill="white"/>
<path id="Vector_6" d="M11.0833 20.6588C11.0506 20.6216 11.0281 20.5766 11.0179 20.5282C11.0076 20.4798 11.01 20.4295 11.0249 20.3823L12.0381 17.1065L12.0238 16.6963L6.43482 19.2585C5.68379 19.6043 5.04743 20.1579 4.60092 20.8538C4.15441 21.5497 3.91641 22.3588 3.91504 23.1856V28H14.7118V20.1509L11.3503 20.7521C11.3015 20.7609 11.2513 20.7568 11.2046 20.7405C11.1578 20.7241 11.116 20.696 11.0833 20.6588ZM5.69101 26.9162C5.69101 26.9926 5.66067 27.0658 5.60666 27.1198C5.55264 27.1739 5.47939 27.2042 5.403 27.2042C5.32662 27.2042 5.25336 27.1739 5.19935 27.1198C5.14534 27.0658 5.115 26.9926 5.115 26.9162V25.0376C5.115 24.9613 5.14534 24.888 5.19935 24.834C5.25336 24.78 5.32662 24.7496 5.403 24.7496C5.47939 24.7496 5.55264 24.78 5.60666 24.834C5.66067 24.888 5.69101 24.9613 5.69101 25.0376V26.9162ZM5.69101 24.0361C5.69101 24.1125 5.66067 24.1858 5.60666 24.2398C5.55264 24.2938 5.47939 24.3241 5.403 24.3241C5.32662 24.3241 5.25336 24.2938 5.19935 24.2398C5.14534 24.1858 5.115 24.1125 5.115 24.0361V23.7593C5.115 23.6829 5.14534 23.6096 5.19935 23.5556C5.25336 23.5016 5.32662 23.4713 5.403 23.4713C5.47939 23.4713 5.55264 23.5016 5.60666 23.5556C5.66067 23.6096 5.69101 23.6829 5.69101 23.7593V24.0361Z" fill="white"/>
<path id="Vector_7" d="M21.1426 24.1044C21.1538 24.0954 21.1628 24.084 21.169 24.071C21.1751 24.058 21.1783 24.0439 21.1783 24.0295V23.7812H19.5366V24.0295C19.5366 24.0439 19.5397 24.0581 19.5459 24.071C19.5521 24.084 19.5611 24.0954 19.5723 24.1044L20.3573 24.7392L21.1426 24.1044Z" fill="white"/>
<path id="Vector_8" d="M20.4741 26.1104L20.3562 25.8711L20.2382 26.1104C20.2176 26.1523 20.187 26.1886 20.1493 26.2161C20.1115 26.2435 20.0676 26.2614 20.0213 26.2681L19.7568 26.3066L19.9485 26.4937C19.9819 26.5262 20.0068 26.5664 20.0212 26.6108C20.0356 26.6551 20.0391 26.7023 20.0312 26.7483L19.986 27.0121L20.2222 26.8878C20.2636 26.866 20.3096 26.8546 20.3564 26.8546C20.4031 26.8546 20.4491 26.866 20.4905 26.8878L20.7267 27.0121L20.6815 26.7483C20.6737 26.7023 20.6771 26.6551 20.6915 26.6108C20.7059 26.5664 20.7309 26.5262 20.7642 26.4937L20.9559 26.3066L20.6914 26.2681C20.6451 26.2615 20.6011 26.2436 20.5633 26.2161C20.5254 26.1887 20.4948 26.1524 20.4741 26.1104Z" fill="white"/>
<path id="Vector_9" d="M21.1781 21.6074H19.5366V23.2048H21.1781V21.6074Z" fill="white"/>
<path id="Vector_10" d="M23.5637 19.2583L17.9755 16.6982L17.974 17.0857L18.9758 20.3862C18.9886 20.4292 18.9912 20.4746 18.9834 20.5188C18.9756 20.563 18.9575 20.6047 18.9307 20.6407C18.9039 20.6767 18.8691 20.7059 18.829 20.726C18.7889 20.7461 18.7447 20.7566 18.6998 20.7566C18.6828 20.7566 18.6658 20.7551 18.6491 20.7521L15.2876 20.1505V27.9997H26.0843V23.1858C26.0829 22.3588 25.8448 21.5495 25.3982 20.8536C24.9515 20.1576 24.3149 19.604 23.5637 19.2583ZM21.7754 26.3107L21.2748 26.7994L21.393 27.4894C21.402 27.5424 21.3961 27.5968 21.3759 27.6466C21.3556 27.6964 21.3218 27.7395 21.2783 27.7711C21.2348 27.8027 21.1834 27.8214 21.1297 27.8253C21.0761 27.8291 21.0225 27.8179 20.9749 27.7929L20.3565 27.4673L19.7381 27.7929C19.6906 27.8179 19.6369 27.8291 19.5833 27.8253C19.5297 27.8214 19.4783 27.8027 19.4348 27.7711C19.3913 27.7395 19.3575 27.6964 19.3372 27.6466C19.317 27.5968 19.311 27.5424 19.3201 27.4894L19.4383 26.7994L18.9377 26.3107C18.8993 26.2732 18.8721 26.2257 18.8592 26.1735C18.8464 26.1214 18.8484 26.0666 18.865 26.0156C18.8816 25.9645 18.9122 25.9191 18.9532 25.8844C18.9943 25.8498 19.0443 25.8274 19.0974 25.8196L19.7886 25.7191L20.0351 25.2191L19.2103 24.5518C19.1321 24.4889 19.0691 24.4093 19.0259 24.3188C18.9827 24.2283 18.9604 24.1293 18.9607 24.029V21.3192C18.9607 21.2428 18.991 21.1696 19.045 21.1156C19.099 21.0616 19.1723 21.0312 19.2487 21.0312H21.4663C21.5427 21.0312 21.616 21.0616 21.67 21.1156C21.724 21.1696 21.7544 21.2428 21.7544 21.3192V24.029C21.7546 24.1292 21.7323 24.2283 21.6891 24.3188C21.6459 24.4093 21.5829 24.4889 21.5048 24.5518L20.6786 25.22L20.9247 25.7192L21.6159 25.8198C21.669 25.8275 21.719 25.85 21.7601 25.8846C21.8011 25.9192 21.8317 25.9646 21.8483 26.0157C21.8649 26.0668 21.8669 26.1215 21.8541 26.1737C21.8412 26.2259 21.8141 26.2734 21.7756 26.3109L21.7754 26.3107Z" fill="white"/>
</g>
</g>
</svg>
