<svg width="30" height="30" viewBox="0 0 30 30" fill="none" xmlns="http://www.w3.org/2000/svg">
<g id="Student">
<g id="Students" clip-path="url(#clip0_976_1169)">
<g id="Group">
<g id="Group_2">
<path id="Vector" d="M10.3493 8.34712C11.5144 8.34712 12.4589 7.40263 12.4589 6.23753C12.4589 5.07243 11.5144 4.12793 10.3493 4.12793C9.18425 4.12793 8.23975 5.07243 8.23975 6.23753C8.23975 7.40263 9.18425 8.34712 10.3493 8.34712Z" fill="white"/>
</g>
</g>
<g id="Group_3">
<g id="Group_4">
<path id="Vector_2" d="M14.6387 26.6684L13.8678 21.0054C13.8563 20.9216 13.8359 20.8392 13.8068 20.7598L12.7057 17.7579V15.2689C11.937 15.64 11.0182 15.321 10.642 14.5578L9.12197 11.4647L11.2712 14.0307C11.7238 14.5709 12.5862 14.4368 12.8563 13.7895L14.3424 10.2276C14.5419 9.74936 14.316 9.20001 13.8379 9.00044C13.3597 8.80087 12.8103 9.0269 12.6107 9.505L11.7188 11.6429L10.5603 10.2599L11.208 10.7351L11.9098 9.05996H8.73934C8.06004 9.05996 7.4921 9.53542 7.34926 10.1717V10.0163C7.34926 9.13897 6.63807 8.42773 5.76078 8.42773C4.88353 8.42773 4.17224 9.13892 4.17224 10.0163V12.1413H3.72451C3.41957 12.1413 3.17236 12.3885 3.17236 12.6934V14.4604C3.17236 14.7653 3.41957 15.0125 3.72451 15.0125H4.17224C4.17224 16.1026 5.015 16.8401 5.95481 16.8401H7.31427V17.7965H7.31549L7.1633 21.4325L5.12495 26.38C4.8782 26.9789 5.16364 27.6643 5.7625 27.911C6.36146 28.1578 7.04691 27.8722 7.29355 27.2735L9.41071 22.1349C9.46282 22.0084 9.49242 21.8738 9.49811 21.7371C9.67295 17.5596 9.66178 17.8433 9.66178 17.7966H10.2215L11.5608 21.448L12.3145 26.9849C12.402 27.6273 12.9938 28.0761 13.6347 27.9887C14.2766 27.9012 14.726 27.3102 14.6387 26.6684Z" fill="white"/>
</g>
</g>
<g id="Group_5">
<g id="Group_6">
<path id="Vector_3" d="M22.5276 6.21919C23.6927 6.21919 24.6372 5.2747 24.6372 4.1096C24.6372 2.9445 23.6927 2 22.5276 2C21.3625 2 20.418 2.9445 20.418 4.1096C20.418 5.2747 21.3625 6.21919 22.5276 6.21919Z" fill="white"/>
</g>
</g>
<g id="Group_7">
<g id="Group_8">
<path id="Vector_4" d="M26.8167 24.5405L26.0458 18.8775C26.0344 18.7937 26.014 18.7113 25.9848 18.6318L24.8838 15.63V14.6341C24.462 14.5 22.0385 13.7294 21.551 13.5743C20.9752 13.3912 20.624 12.831 20.6821 12.2528L21.0253 8.82357L21.4949 12.1376C21.5455 12.4945 21.7961 12.7908 22.1396 12.9001L25.2155 13.8781C25.7091 14.0351 26.2368 13.7622 26.3938 13.2683C26.5508 12.7745 26.2778 12.247 25.784 12.09L23.27 11.2906L22.8831 8.56037L23.6852 10.5612L24.8838 10.9424V8.3571C24.8838 7.57004 24.2458 6.93203 23.4587 6.93203H20.9174C20.2381 6.93203 19.6701 7.40749 19.5273 8.04373V7.88834C19.5273 7.01104 18.8161 6.2998 17.9388 6.2998C17.0614 6.2998 16.3503 7.01099 16.3503 7.88834V10.506H15.933C15.6281 10.506 15.3809 10.7532 15.3809 11.0581V12.5963C15.3809 12.9013 15.6281 13.1485 15.933 13.1485H16.3641C16.4721 14.0296 17.2225 14.7121 18.1328 14.7121H19.4923V15.6685H19.4935L19.3413 19.3045L17.303 24.252C17.0562 24.8508 17.3417 25.5363 17.9405 25.7831C18.5399 26.03 19.225 25.7438 19.4716 25.1455L21.5887 20.0069C21.6408 19.8804 21.6704 19.7458 21.6761 19.6092C21.851 15.4311 21.8398 15.7156 21.8398 15.6686H22.3995L23.7388 19.3201L24.4926 24.8569C24.58 25.4994 25.1719 25.9482 25.8127 25.8608C26.4546 25.7733 26.9041 25.1822 26.8167 24.5405Z" fill="white"/>
</g>
</g>
</g>
</g>
<defs>
<clipPath id="clip0_976_1169">
<rect width="26" height="26" fill="white" transform="translate(2 2)"/>
</clipPath>
</defs>
</svg>
