<svg width="30" height="30" viewBox="0 0 30 30" fill="none" xmlns="http://www.w3.org/2000/svg">
<g id="Timetable">
<path id="Vector" d="M11.1 19.5881H13.4357V21.7206H11.1V19.5881ZM13.4357 13.6475H11.1V15.78H13.4357V13.6475ZM13.4357 10.6772H11.1V12.8097H13.4357V10.6772ZM13.4357 16.6178H11.1V18.7503H13.4357V16.6178ZM7.91006 21.7206H10.2458V19.5881H7.91006V21.7206ZM10.2485 16.6178H7.91273V18.7503H10.2485V16.6178ZM17.4799 18.0386C18.0218 17.4556 18.6731 16.9723 19.4018 16.6178H17.4799V18.0386ZM16.6257 13.6475H14.2899V15.78H16.6257V13.6475ZM19.8156 10.6772H17.4799V12.8097H19.8156V10.6772ZM14.2899 18.7503H16.6257V16.6178H14.2899V18.7503ZM16.6257 10.6772H14.2899V12.8097H16.6257V10.6772ZM10.2485 13.6475H7.91273V15.78H10.2485V13.6475ZM14.2899 21.7206H15.7901C15.8702 20.9642 16.0838 20.2446 16.4068 19.5881H14.2899V21.7206ZM7.05852 10.6772H4.72012V12.8097H7.05852V10.6772ZM4.29569 22.5584C4.06078 22.5584 3.87125 22.3693 3.87125 22.1382V10.2596C3.87125 10.0285 4.06078 9.83939 4.29569 9.83939H20.2427C20.4776 9.83939 20.6698 10.0285 20.6698 10.2596V16.1556C21.193 16.0242 21.7402 15.9533 22.3062 15.9533C22.3836 15.9533 22.4637 15.956 22.5411 15.9586V8.84141H2V22.8263C2 23.6903 2.71807 24.3994 3.59897 24.3994H16.0784C15.8862 23.819 15.7741 23.1992 15.7581 22.561H4.29569V22.5584ZM19.8156 13.6475H17.4799V15.78H19.8156V13.6475ZM10.2485 10.6772H7.91273V12.8097H10.2485V10.6772ZM7.05852 13.6475H4.72012V15.78H7.05852V13.6475ZM7.05852 16.6178H4.72012V18.7503H7.05852V16.6178ZM4.72012 21.7206H7.05852V19.5881H4.72012V21.7206ZM22.5384 5.76343C22.5384 4.89939 21.8177 4.1903 20.9394 4.1903H20.5977V5.36424C20.5977 6.38848 19.7515 7.22101 18.7131 7.22101C17.6721 7.22101 16.8259 6.38848 16.8259 5.36424V4.1903H16.3027V5.36424C16.3027 6.38848 15.4565 7.22101 14.4154 7.22101C13.3743 7.22101 12.5281 6.38848 12.5281 5.36424V4.1903H12.0049V5.36424C12.0049 6.38848 11.1587 7.22101 10.1177 7.22101C9.07926 7.22101 8.23039 6.38848 8.23039 5.36424V4.1903H7.71253V5.36424C7.71253 6.38848 6.86366 7.22101 5.82526 7.22101C4.78419 7.22101 3.93799 6.38848 3.93799 5.36424V4.1903H3.59897C2.72074 4.1903 2 4.89939 2 5.76343V7.99838H22.5384V5.76343ZM5.82526 6.38061C6.39384 6.38061 6.85832 5.92364 6.85832 5.36424V3.01899C6.85832 2.4596 6.39384 2 5.82526 2C5.25667 2 4.7922 2.4596 4.7922 3.01899V5.36424C4.78953 5.92364 5.254 6.38061 5.82526 6.38061ZM10.1203 6.38061C10.6889 6.38061 11.1561 5.92364 11.1561 5.36424V3.01899C11.1561 2.4596 10.6889 2 10.1203 2C9.55175 2 9.08727 2.4596 9.08727 3.01899V5.36424C9.0846 5.92364 9.55175 6.38061 10.1203 6.38061ZM14.4181 6.38061C14.9867 6.38061 15.4511 5.92364 15.4511 5.36424V3.01899C15.4511 2.4596 14.9867 2 14.4181 2C13.8495 2 13.385 2.4596 13.385 3.01899V5.36424C13.3823 5.92364 13.8468 6.38061 14.4181 6.38061ZM18.7131 6.38061C19.2817 6.38061 19.7462 5.92364 19.7462 5.36424V3.01899C19.7462 2.4596 19.2817 2 18.7131 2C18.1446 2 17.6774 2.4596 17.6774 3.01899V5.36424C17.6774 5.92364 18.1446 6.38061 18.7131 6.38061ZM28 22.3956C28 25.484 25.44 28 22.3035 28C19.1643 28 16.607 25.4814 16.607 22.3956C16.607 19.3097 19.1669 16.7911 22.3035 16.7911C25.44 16.7911 28 19.3097 28 22.3956ZM26.4918 22.3956C26.4918 20.1265 24.6099 18.2749 22.3035 18.2749C19.9971 18.2749 18.1152 20.1265 18.1152 22.3956C18.1152 24.6646 19.9971 26.5162 22.3035 26.5162C24.6099 26.5162 26.4918 24.6646 26.4918 22.3956ZM24.5058 21.9754H22.7306V20.2289C22.7306 19.9978 22.5411 19.8113 22.3062 19.8113C22.0713 19.8113 21.8791 19.9978 21.8791 20.2289V22.3929C21.8791 22.624 22.0713 22.8105 22.3062 22.8105H24.5058C24.7407 22.8105 24.9302 22.624 24.9302 22.3929C24.9302 22.1618 24.7407 21.9754 24.5058 21.9754Z" fill="white"/>
</g>
</svg>
